<svg width="150" height="99" xmlns="http://www.w3.org/2000/svg"><g fill="none" fill-rule="evenodd"><path d="M148.7 79.8H92.4c.7-6.1.3-6.5 6.4-9l1.2-.5c2.2-.9 5.2-2 9.2-3.7 1.4-.6 2.4-2 2.4-3.5v-7.5c-.1-.2-.3-.4-.4-.6-.1-.1-.2-.2-.2-.4-.1-.1-.1-.2-.2-.3-.2-.3-.3-.6-.4-1 0-.1-.1-.2-.1-.4 0-.1-.1-.3-.1-.4 0-.2-.1-.4-.1-.6l-.6-.3c-1.9.5-1.8-1.6-2.3-5.5-.2-1.6 0-2 .8-2.2l.6-.8c-3.7-8.4-1.8-13.6 1.8-15.5-1.2-2.7-1.3-3.6-1.3-3.6s7.8 1.3 10.4.8c3.4-.7 8.6.1 10.5 4.6 3.2 1.3 4.5 3.3 4.8 5.5 0 .2.1.5.1.8.1 3.4-1.7 6.9-2 8.2 0 0 .1 0 .1.1.2.1.3.2.4.4 0 0 0 .1.1.1v.2c.1.3.1.8 0 1.4-.1.4-.1.8-.1 1.2-.1.7-.1 1.3-.2 1.9 0 .3-.1.5-.1.7 0 .2-.1.4-.1.5-.1.3-.2.6-.4.8 0 0 0 .1-.1.1-.2.3-.6.4-1.1.3h-.1l-.4.8-1.3 2.2c0 .1 0 .2-.1.3-.1.3-.1.4-.1 1v7.2c0 1.6.9 3 2.4 3.5.3.1.6.3 1 .4.2.1.3.1.5.2.3.1.7.3 1 .4 4.1 1.7 7 2.7 9 3.6.1 0 .1 0 .2.1.6.2 1 .5 1.5.7.7.4 1.3.7 1.7 1.1l.1.1.1.1c.3.3.6.7.8 1.1.1.1.1.3.2.4 0 .1.1.3.1.4 0 .2.1.4.1.6 0 .2.1.5.1.7 0 .1 0 .2.1.4v.8c0 .2.1.4.1.6v.8c.2.2.2.5.3.7z" fill="#FFF"/><path d="M148.7 79.8H99.5c.6-5.5.3-5.9 5.6-8.2l1-.4c2-.8 4.6-1.8 8.1-3.3 1.3-.5 2.1-1.8 2.1-3.2v-6.8c-.8-.9-1.2-2.1-1.3-3.4l-.6-.3c-1.7.4-1.6-1.4-2-5-.2-1.5 0-1.8.7-2l.5-.7c-3.2-7.6-1.6-12.4 1.6-14-1.1-2.4-1.1-3.3-1.1-3.3s6.8 1.2 9.1.7c3-.6 7.5.1 9.2 4.2 1.1.4 1.9 1 2.5 1.6.1 3.4-1.7 6.9-2 8.2 0 0 .1 0 .1.1.2.1.3.2.4.4 0 0 0 .1.1.1v.2c.1.3.1.8 0 1.4-.1.4-.1.8-.1 1.2-.1.7-.1 1.3-.2 1.9 0 .3-.1.5-.1.7 0 .2-.1.4-.1.5v.2c-.1.3-.2.5-.3.6 0 0 0 .1-.1.1-.2.3-.6.4-1.1.3h-.1l-.4.8c-.3.9-.7 1.8-1.3 2.5-.1.3-.1.4-.1 1v7.2c0 1.6.9 3 2.4 3.5.3.1.6.3 1 .4.3.3.7.6 1.1.8h.1c11.5 4.9 13.5 4.8 14.2 8 0 .2.1.5.1.7 0 .1 0 .2.1.4v.3c0 .2 0 .4.1.6 0 .2 0 .3.1.5v.8c-.2.2-.2.5-.1.7z" fill="#DDECFE"/><path d="M98.9 70.8c.4-.2.8-.3 1.2-.5"/><g stroke-linecap="round" stroke-linejoin="round" stroke="#333" stroke-width="3"><path d="M100.5 70.2c3.1-1.2 6.5-2.6 8.8-3.6 1.4-.6 2.4-2 2.4-3.5v-7.5m20.4-12c.1-.3.1-.9.1-1.5 0 0-.2-5.8-8.2-6.1-8.1-.3-8.8 1.1-11.4-1.2 1.2 1.8.1 5.9-2.4 8.4m20.9 7.9c0 .4-.1.8-.2 1.2-.3.9-.7 1.8-1.3 2.5l-.9.9-5.5 4.9c-1.4 1.1-3.4 1.1-4.7-.1l-2.1-1.5-3.7-2.6-.9-.9s0 0 0 0c-.1-.2-.3-.4-.4-.6-.1-.1-.2-.2-.2-.4-.1-.1-.1-.2-.2-.3-.2-.3-.3-.6-.4-1 0-.1-.1-.2-.1-.4 0-.1-.1-.3-.1-.4 0-.2-.1-.4-.1-.6m-1.7-8.2c-1.2.4-1.6.4-1.4 2.4.2 2 .3 3.3.6 4.6.3 1.3 1.6.9 1.6.9m20 3.5v8c0 1.6.9 3 2.4 3.5.3.1.6.3 1 .4.2.1.3.1.5.2.3.1.7.3 1 .4 2.9 1.2 6.4 2.6 9 3.6.1 0 .1 0 .2.1 1.5.6 2.4 1.1 3.1 1.7l.1.1.1.1c.3.3.6.7.8 1.1.1.1.1.3.2.4 0 .1.1.3.1.4.2.5.2 1.1.3 1.7v.3c0 .2 0 .4.1.6 0 .2 0 .3.1.5v.8c0 .2 0 .4.1.6"/><path d="M131.3 51.5h.1s0 0 0 0c.2 0 .7 0 1.1-.3 0 0 .1 0 .1-.1.1-.1.3-.3.3-.6v-.2c0-.2.1-.4.1-.5 0-.2.1-.5.1-.7.1-.6.1-1.2.2-1.9 0-.4.1-.8.1-1.2.1-.7.1-1.1 0-1.4v-.2s0 0 0 0c0-.1 0-.1-.1-.1-.1-.2-.2-.3-.4-.4 0 0-.1 0-.1-.1-.2-.1-.5-.1-.7-.2"/></g><path d="M108.8 43.5c-4-8.7-2.1-14.1 1.6-16-1.2-2.6-1.3-3.6-1.3-3.6s7.8 1.3 10.4.8c3.4-.7 8.6.1 10.6 4.6 2.7 1.1 7.5 3.9 3 13.7" stroke="#333" stroke-width="3" stroke-linecap="round" stroke-linejoin="round"/><path d="M2 78.6h45.6c0-5.9-4.3-14.5-13.1-14.5-4.4 0-4.8-.3-4.8-.3v-5.1c3.2-2.7 5.9-5.8 6.7-9.9 2-.4 3.3-2.3 3.1-4.3-.1-.9-.7-1.7-.7-2.6 0-2.6 0-5-1.7-8.1-2.5-4.8-7.5-7.9-13.2-7.9-1.1 0-2.3.1-3.4.4-2.4.6-4.7 1.7-6.5 3.3-1.9 1.7-3.4 3.9-4.2 6.3-.8 2.4-1 5-.6 7.5.1.4.2.4-.1.8-.5.7-1 1.8-.6 3.2.8 2.1 2.3 1.9 3.7 3.1-.1.1-.2.1-.2.1l-1.6.5C.9 54.1-.1 64.2 9.6 66l-1.7.4C4.1 69.3 2 74.4 2 78.6z" fill="#FFF"/><path d="M11.7 78.6h35.9c0-5.6-3.8-13.9-11.6-13.9-3.9 0-4.3-.3-4.3-.3v-4.9c2.9-2.6 5.3-5.6 6-9.4 1.8-.4 2.9-2.2 2.7-4.1-.1-.9-.6-1.6-.6-2.5 0-2.5 0-4.8-1.5-7.8-2.3-4.6-6.7-7.6-11.8-7.6-1 0-2 .1-3 .4-2.1.5-4.1 1.6-5.8 3.2-1.7 1.6-3 3.7-3.7 6.1-.7 2.3-.9 4.8-.5 7.2.1.4.2.4-.1.7-.5.6-.9 1.7-.5 3.1.7 2.1 2 1.8 3.3 3-.1 0-.1.1-.2.1l-1.5.5c-8.4 2.9-9.4 12.5-.7 14.3l-1.5.4c-2 1.6-3.4 4-4.3 6.5-1 2.4 1 5 3.7 5z" fill="#DDECFE"/><g stroke-linecap="round" stroke-linejoin="round" stroke="#333" stroke-width="3"><path d="M14.6 29.6l2.6 3.9c3.4 5 13.5 10.1 20.9 6.2l.5-.2M9.4 43.9l.6-.3c2.9-2.2 5.6-3.4 6.7-6.4M2.9 57.9c-.6 2.5.3 5.1 3 6.8 2.3 1.5 5 1.3 7.6 2.1 1.1.3 2.2.8 2.7 1.9.7 1.6-.1 3.6-.8 5.1 11.1-.5 5.6-9.6 2.6-11.5-3.1-2-7.5-3.7-2.8-7.3"/><path d="M11.9 50.6l-1.6.5c-4.2 1.3-6.8 4.1-7.5 6.9m41.7 11.5c-2.2-3.1-5.5-5.4-9.7-5.4-4.8 0-5.2-.3-5.2-.3v-5.1m-9.7 5.1v-4.3M2 78.6c0-4.2 2.1-9.3 5.9-12.2l.5-.4"/><path d="M28.9 59.3c-2 1.4-4.4 2.3-6.8 1.3-1.4-.6-2.6-1.6-3.9-2.5-3.4-2.4-4.1-5.3-5.4-7.1-1.4-1.8-3.4-1.2-4.2-3.6-.5-1.4 0-2.5.6-3.2.3-.4.2-.3.1-.8-.3-2.5-.2-5.1.6-7.5.8-2.4 2.2-4.6 4.2-6.3.6-.5 1.2-.9 1.8-1.4"/><path d="M15.7 28.2c2.4-1.6 5.3-2.4 8.1-2.4 5.7 0 10.7 3.2 13.2 7.9 1.7 3.2 1.7 5.6 1.7 8.1 0 .9.6 1.7.7 2.6.2 2-1.1 3.9-3.1 4.3-.6 3.2-2.4 5.8-4.7 8-.6.6-1.3 1.3-2 1.8"/></g><path d="M119.8 97.2H24c1.2-10.3.5-11.1 11-15.4l2-.8c3.8-1.5 8.9-3.5 15.7-6.3 2.4-1 4-3.4 4-6V56c-.2-.2-.4-.5-.5-.7-.1-.2-.3-.4-.4-.6-.2-.3-.3-.6-.5-.9-.2-.5-.5-1-.6-1.6-.1-.3-.2-.5-.2-.8-.1-.3-.1-.6-.2-.8-.1-.3-.1-.6-.1-.9l-1.1-.5c-3.3.8-3-2.7-3.8-9.4-.3-2.8.1-3.4 1.3-3.8l1-1.4c-6.3-14.3-3.1-23.2 3.1-26.3-2.1-4.5-2.2-6.1-2.2-6.1s13.2 2.2 17.8 1.3c5.3-1 13.3 0 17.1 6.2.3.5.6 1.1.9 1.7.4.2.8.3 1.1.5 3.1 1.5 5 3.4 6 5.5.5 1.1.8 2.2 1 3.4.8 6.1-2.8 12.9-3.3 15.3.1 0 .2.1.2.1.1 0 .1.1.2.1.1.1.3.2.4.4 0 .1.1.1.1.2s.1.2.1.2c0 .1.1.3.1.4v.1c.1.3.1.8 0 1.3 0 .3 0 .6-.1.9-.1.9-.2 1.7-.3 2.4-.1 1.5-.3 2.7-.5 3.8 0 .2-.1.5-.1.8-.2.8-.4 1.5-.7 1.9 0 .1-.1.1-.1.1-.4.5-1.1.7-2 .5h-.1l-.7 1.2-2.2 3.9c0 .2-.1.4-.1.6-.3 1.2-.2 1-.2 13.9 0 2.6 1.6 5 4 6h.1c3.3 1.4 6.3 2.6 8.8 3.6l.9.3c12.8 5 16.2 6 17.6 10v.1c0 .1.1.3.1.4.2.6.3 1.2.4 1.9.1.4.1.8.2 1.2 0 .4.1.8.1 1.2.1.5.1 1.1.2 1.8v.1c.2.5.3 1 .3 1.7z" fill="#FFF"/><path d="M119.8 97.2H39.6c-4.9 0-8.4-4.9-6.3-9.1 1.1-2.3 3.3-3.5 8.5-5.7l1.9-.8c3.5-1.5 8.2-3.3 14.4-6 2.2-1 3.7-3.3 3.7-5.8V57.5c-1.3-1.7-2.2-3.8-2.4-6.1l-1-.5c-3 .7-2.8-2.6-3.5-9.1-.3-2.7.1-3.2 1.2-3.7l1-1.3c-5.8-13.7-2.9-22.3 2.8-25.4-1.9-4.4-2-5.9-2-5.9s12.2 2.1 16.3 1.3c3.9-.8 9.3-.3 13.1 2.9.7.6 1.4 1.3 2 2.2.6.8 1 1.6 1.4 2.6 2 .8 3.5 1.8 4.6 2.9.5 1.1.8 2.2 1 3.4.8 6.1-2.8 12.9-3.3 15.3.1 0 .2.1.2.1.1 0 .1.1.2.1.1.1.3.2.4.4 0 .1.1.1.1.2s.1.2.1.2c0 .1.1.3.1.4v.1c.1.3.1.8 0 1.3 0 .3 0 .6-.1.9-.1.9-.2 1.7-.3 2.4-.1 1.5-.3 2.7-.5 3.8 0 .2-.1.5-.1.8 0 .3-.1.6-.2.9-.1.4-.3.8-.5 1 0 .1-.1.1-.1.1-.4.5-1.1.7-2 .5h-.1l-.7 1.2c-.5 1.6-1.2 3.1-2.3 4.4-.3 1.2-.2 1-.2 13.9 0 2.6 1.6 5 4 6h.1c3.3 1.4 6.3 2.6 8.8 3.6l.9.3c12.7 5.3 16.2 6.2 17.6 10v.1c0 .1.1.3.1.4.2.6.3 1.3.5 2.1.1.4.1.8.2 1.2 0 .4.1.7.1 1.1.1.5.1 1.1.2 1.7v.1c.2.6.3 1.1.3 1.8z" fill="#DDECFE"/><path d="M35 81.8c.6-.3 1.3-.5 2-.8" fill="#FFF"/><path d="M39.8 80c4.7-1.9 9.6-3.9 13-5.3 2.4-1 4-3.4 4-6V56M31.9 83c.1-.1.3-.1.4-.2M24 97.2c.4-3.4.5-5.9 1.1-7.9m66.6-53.8c.1-.5.2-1.6.1-2.6 0 0-.3-9.8-14-10.3s-15.1 1.9-19.3-2c1.3 2 1 5.6-.6 9.1M90 48.3c-.1.7-.2 1.4-.4 2-.5 1.6-1.2 3.1-2.3 4.4-.5.6-1 1.1-1.5 1.5l-9.3 8.4c-2.4 1.9-5.8 1.8-8.1-.1L62 60l-3.5-2.5c-.6-.5-1.1-1-1.6-1.6-.2-.2-.3-.5-.5-.7-.1-.2-.3-.4-.4-.6-.2-.3-.3-.6-.5-.9-.2-.5-.5-1-.6-1.6-.1-.3-.2-.5-.2-.8-.1-.3-.1-.6-.2-.8-.1-.3-.1-.6-.1-.9m-2.8-14c-2 .6-2.8.6-2.4 4.1.4 3.5.5 5.7 1.1 7.8.5 2.1 2.8 1.6 2.8 1.6m66.7 48.1c-1-8.2-.3-11.3-9-14.5-5.9-2.2-14.7-5.8-19.8-7.9-2.4-1-4-3.4-4-6v-2m3.3-17.7h.1s0 0 0 0c.4.1 1.3.1 2-.5l.1-.1c.2-.2.4-.6.5-1 .1-.3.1-.6.2-.9.1-.2.1-.5.1-.8.2-1.1.3-2.3.5-3.8.1-.7.2-1.5.3-2.4 0-.3.1-.6.1-.9v-1.4c0-.2-.1-.3-.1-.4 0-.1-.1-.2-.1-.2 0-.1-.1-.1-.1-.2-.1-.1-.2-.3-.4-.4-.1 0-.1-.1-.2-.1s-.2-.1-.2-.1 0 0 0 0c-.3-.1-.8-.3-1.3-.4" stroke-linecap="round" stroke-linejoin="round" stroke="#333" stroke-width="3"/><path d="M52 35.4c-6.8-14.8-3.7-24 2.7-27.2-2.1-4.5-2.2-6.1-2.2-6.1s13.2 2.2 17.8 1.3c5.8-1.1 14.6.2 18 7.9 4.6 1.8 12.8 6.6 5.1 23.3" stroke="#333" stroke-width="3" stroke-linecap="round" stroke-linejoin="round"/></g></svg>