<svg width="150" height="100" viewBox="0 0 150 100" xmlns="http://www.w3.org/2000/svg"><title>feature-04</title><g transform="translate(2 -2)" fill="none" fill-rule="evenodd"><circle fill="#FFF" cx="137.1" cy="53.7" r="9.1"/><circle fill="#FFF" transform="rotate(-45 123.467 13.341)" cx="123.467" cy="13.341" r="9.1"/><circle fill="#FFF" transform="rotate(-45 122.238 90.955)" cx="122.238" cy="90.955" r="9.1"/><circle fill="#FFF" cx="9.1" cy="53.7" r="9.1"/><circle fill="#FFF" transform="rotate(-45 22.667 13.34)" cx="22.667" cy="13.339" r="9.1"/><circle fill="#FFF" transform="rotate(-45 23.836 90.949)" cx="23.836" cy="90.949" r="9.1"/><circle fill="#DDECFE" cx="138.6" cy="55.2" r="7.6"/><circle fill="#DDECFE" transform="rotate(-45 125.004 14.851)" cx="125.004" cy="14.851" r="7.6"/><circle fill="#DDECFE" transform="rotate(-45 123.634 92.366)" cx="123.634" cy="92.366" r="7.7"/><circle fill="#DDECFE" cx="10.4" cy="55.1" r="7.8"/><circle fill="#DDECFE" transform="rotate(-45 24.204 14.849)" cx="24.204" cy="14.849" r="7.6"/><circle fill="#DDECFE" transform="rotate(-45 25.232 92.359)" cx="25.232" cy="92.359" r="7.7"/><path d="M94.6 74.4c-12.1 12.1-31.7 12.1-43.7 0-12.1-12.1-12.1-31.7 0-43.7 12.1-12.1 31.7-12.1 43.7 0 12.1 12 12.1 31.6 0 43.7z" fill="#FFF"/><path d="M95.1 74.8c-11.4 11.4-29.9 11.4-41.2 0-11.4-11.4-11.4-29.8 0-41.2 11.4-11.4 29.8-11.4 41.2 0 11.4 11.3 11.4 29.8 0 41.2z" fill="#99C7FF"/><path d="M73.2 21.6c7.7.1 15.5 3.1 21.4 9.1 12.1 12.1 12.1 31.7 0 43.7-3.7 3.7-8.2 6.3-13 7.8M59.9 24.4c1.1-.5 2.3-1 3.4-1.3m2.6 59.6c-5.5-1.2-10.8-4-15.1-8.3-12.1-12.1-12.1-31.7 0-43.7.4-.4.9-.8 1.3-1.2" stroke="#333" stroke-width="3" stroke-linecap="round" stroke-linejoin="round"/><g transform="translate(56 33)"><path d="M7.4 14.3c1.6 3 4.8 5.1 8.4 5.1 5.3 0 9.5-4.3 9.5-9.5 0-5.3-4.3-9.5-9.5-9.5S6.3 4.7 6.3 9.9c0 1.6.4 3.1 1.1 4.4" fill="#FFF"/><circle fill="#DDECFE" cx="17.4" cy="11.4" r="8"/><path d="M26.5 20.8c4.4 3.3 7.6 7.7 7.6 12.8 0 1.6-1.6 1.6-1.6 1.6H1.7s-1.6 0-1.6-1.6c0-6.6 5.2-11.9 11.5-15.4" fill="#FFF"/><path d="M14.7 20.7c-5.8 2-9.8 7.5-9.8 13.2 0 1.4 1.4 1.4 1.4 1.4h26.4s1.4 0 1.4-1.4c0-4.4-2-8.4-5.6-11.5-1.1-1-2.3-1.9-3.7-2.4-3.1-1.2-6.6-.4-9.7.6-.1.1-.3.1-.4.1z" fill="#DDECFE"/><path d="M11.4 18.3c1.3.7 2.8 1.1 4.4 1.1 5.3 0 9.5-4.3 9.5-9.5 0-5.3-4.3-9.5-9.5-9.5S6.3 4.7 6.3 9.9c0 1.1.2 2.1.5 3.1" stroke="#333" stroke-width="3" stroke-linecap="round" stroke-linejoin="round"/><path d="M26.5 20.8c4.4 3.3 7.6 7.7 7.6 12.8 0 1.6-1.6 1.6-1.6 1.6H1.7s-1.6 0-1.6-1.6c0-6.6 5.2-11.9 11.5-15.4" stroke="#333" stroke-width="3" stroke-linecap="round" stroke-linejoin="round"/></g><circle stroke="#333" stroke-width="3" stroke-linecap="round" stroke-linejoin="round" cx="137.1" cy="53.7" r="9.1"/><path d="M123.6 53.7h-11.3" stroke="#333" stroke-width="3" stroke-linecap="round" stroke-linejoin="round"/><circle stroke="#333" stroke-width="3" stroke-linecap="round" stroke-linejoin="round" transform="rotate(-45 123.467 13.341)" cx="123.467" cy="13.341" r="9.1"/><path d="M113.9 22.9l-7.9 8M120.5 82c-1.7.3-3.4 1.2-4.7 2.5-3.6 3.6-3.6 9.4 0 12.9 3.6 3.6 9.4 3.6 12.9 0 3.6-3.6 3.6-9.4 0-12.9-.5-.5-1.1-1-1.7-1.4m-14.3-1.6l-7.9-8" stroke="#333" stroke-width="3" stroke-linecap="round" stroke-linejoin="round"/><circle stroke="#333" stroke-width="3" stroke-linecap="round" stroke-linejoin="round" cx="9.1" cy="53.7" r="9.1"/><path d="M22.6 53.7h11.2M29.9 19c2.8-3.6 2.6-8.8-.7-12.1-2-2-4.7-2.9-7.3-2.6m-6.1 3c-3.2 3.6-3 9.1.4 12.5 1.9 1.9 4.4 2.8 6.9 2.7m9.1.4l8 8m-9.3 66c-.2.2-.3.4-.5.6-3.6 3.6-9.4 3.6-12.9 0-3.6-3.6-3.6-9.4 0-12.9 3.6-3.6 9.4-3.6 12.9 0 1.5 1.5 2.4 3.5 2.6 5.5m.4-8.6l8-8" stroke="#333" stroke-width="3" stroke-linecap="round" stroke-linejoin="round"/></g></svg>