<svg width="152" height="121" viewBox="0 0 152 121" xmlns="http://www.w3.org/2000/svg"><title>feature-01</title><g fill="none" fill-rule="evenodd"><path fill="#FFF" d="M96.9 84.1h8.8v35h-8.8z"/><path fill="#99C7FF" d="M96.9 84.1h8.8v35h-8.8z"/><path stroke="#333" stroke-width="2.807" stroke-linecap="round" stroke-linejoin="round" d="M96.9 84.1h8.8v35h-8.8z"/><path fill="#FFF" d="M105 84.1h8.8v35H105z"/><path fill="#DDECFE" d="M105 84.1h8.8v35H105z"/><path stroke="#333" stroke-width="2.807" stroke-linecap="round" stroke-linejoin="round" d="M105 84.1h8.8v35H105z"/><path d="M149.8 49.4v35.3h-27.5v.1h-55V21.4h52.4c.7-.1 1.4-.1 2.1-.1 7.8 0 14.8 3.1 19.9 8.2 5 5.1 8.1 12.1 8.1 19.9z" fill="#FFF"/><path d="M147.4 51.3v33.4h-26.1v.1H69.6v-60h49.2c.7 0 1.3-.1 2-.1 7.3 0 14 3 18.8 7.8 4.8 4.8 7.8 11.4 7.8 18.8z" fill="#DDECFE"/><path d="M100.4 21.4h19.1c.7-.1 1.4-.1 2.1-.1 7.8 0 14.8 3.1 19.9 8.2 5.1 5.1 8.2 12.1 8.2 19.9v35.3h-27.5v.1h-55V21.4h18.5m9.4 0h.5" stroke="#333" stroke-width="2.807" stroke-linecap="round" stroke-linejoin="round"/><path d="M94.6 84.7H38.4V49.4c0-15.5 12.6-28.1 28.1-28.1 15.5 0 28.1 12.6 28.1 28.1v35.3z" fill="#6BADFF"/><path d="M94.6 84.7H42.7V52c0-14.3 11.6-26 26-26 14.3 0 26 11.6 26 26v32.7h-.1z" fill="#99C7FF"/><path d="M94.6 84.7H38.4V49.4c0-15.5 12.6-28.1 28.1-28.1 15.5 0 28.1 12.6 28.1 28.1v28.4" stroke="#333" stroke-width="2.807" stroke-linecap="round" stroke-linejoin="round"/><path d="M143.4 12.6h-13.5v38c0 1.1-.9 2-2 2s-2-.9-2-2V2.2h17.5c.5 0 .7.6.3.9l-4 3.4c-.6.5-.6 1.3 0 1.8l4 3.4c.4.3.2.9-.3.9z" fill="#FFF"/><path d="M125.9 14.4V2.2h17.5c.5 0 .7.6.3.9l-4 3.4c-.6.5-.6 1.3 0 1.8l4 3.4c.4.3.2.9-.3.9h-13.5v38c0 1.1-.9 2-2 2s-2-.9-2-2V21.5" stroke="#333" stroke-width="2.807" stroke-linecap="round" stroke-linejoin="round"/><path d="M133.1 46.9c.6.9.9 2 .9 3.2 0 3.3-2.7 6-6 6s-6-2.7-6-6c0-1.2.3-2.2.9-3.2m-13.5 53.2v.5m0-13v7.3M38.8 84.5H7.6" stroke="#333" stroke-width="2.807" stroke-linecap="round" stroke-linejoin="round"/><path d="M57.4 40.2H34.1m-1.2 0v33.1c0 .8.5 1.4 1.2 1.4h46.4c.7 0 1.2-.6 1.2-1.4V41.6c0-.8-.6-1.4-1.3-1.4h-18" fill="#FFF"/><path d="M34.3 40.2c-.8 0-1.4.7-1.4 1.5v31.6c0 .8.5 1.4 1.2 1.4h46.4c.7 0 1.2-.6 1.2-1.4V41.7c0-.8-.6-1.5-1.4-1.5h-46zm42 28.7l-12.4-9.1" stroke="#333" stroke-width="3" stroke-linecap="round" stroke-linejoin="round"/><path stroke="#333" stroke-width="3" stroke-linecap="round" stroke-linejoin="round" d="M33.9 40.9l23 16.8L80.5 41m-37 24.9l7.1-5.1m-11.3 8l1.3-.9"/><path d="M5.1 45.8H1.8m26.1 0H9m18.9 6.9H13.2" stroke="#99C7FF" stroke-width="3" stroke-linecap="round" stroke-linejoin="round"/></g></svg>