<svg width="151" height="93" xmlns="http://www.w3.org/2000/svg"><g transform="translate(2 1)" fill="none" fill-rule="evenodd"><path d="M43.1 80.3H30.5c-.5 0-.9-.4-.9-.9l1.3-5.3c0-.5.4-.9.9-.9h111c.5 0 .9.4.9.9l-2.2 5.3c0 .5-.4.9-.9.9H43.1z" fill="#DDECFE"/><path d="M110.1 73.3l7.6-44.3c.2-1.1 1.1-1.8 2.2-1.8H137c2.2 0 4.1 1.4 4.8 3.5l5.2 16.2c.5 1.6.5 3.3.1 4.9L141 73.3" fill="#DDECFE"/><path d="M1.2 90.3H.3m27.6 0H5m27.8 0h-.9m76.7 0H37.8m103.8 0h-29m34.1 0h-1.4" stroke-linecap="round" stroke-linejoin="round" stroke="#91C2FF" stroke-width="3"/><circle stroke="#333" stroke-width="3" fill="#7DB7FF" stroke-linecap="round" stroke-linejoin="round" cx="123.9" cy="81.7" r="8.2"/><path d="M112.7 58.2l5-29.2c.2-1.1 1.1-1.8 2.2-1.8H137c2.2 0 4.1 1.4 4.8 3.5l5.2 16.2c.5 1.6.5 3.3.1 4.9L141 73.3m-29.8-6.4l.6-3.2M43.1 80.3H30.5c-.5 0-.9-.4-.9-.9l1.3-5.3c0-.5.4-.9.9-.9h14m64.5 7.1H70m64.5-7h8.4c.5 0 .9.4.9.9l-2.2 5.3c0 .5-.4.9-.9.9h-3.4m-70.1-7.1h45.9" stroke="#333" stroke-width="3" stroke-linecap="round" stroke-linejoin="round"/><path d="M42 21.3l.5-2.8c.2-1.1 1.1-1.8 2.2-1.8h64.8c.7 0 1.3.3 1.7.8.4.5.6 1.2.5 1.8l-8.9 46.3c-.2 1-1.1 1.8-2.2 1.8H36.8c-.7 0-1.3-.3-1.7-.8-.4-.5-.6-1.2-.5-1.8l1.6-9.3L42 21.3z" fill="#FFF"/><path d="M46 24l.4-2.7c.2-1 1-1.7 2.1-1.7h61.2c.6 0 1.2.3 1.6.8.4.5.6 1.1.4 1.7l-8.4 43.6c-.2 1-1 1.7-2 1.7H41.2c-.6 0-1.2-.3-1.6-.7-.4-.4-.6-1.1-.5-1.7l1.5-8.8L46 24z" fill="#7DB7FF"/><path d="M37.7 46.9l.8-5m64.7-25.3h6.3c.7 0 1.3.3 1.7.8.4.5.6 1.2.5 1.8l-8.9 46.3c-.2 1-1.1 1.8-2.2 1.8H36.8c-.7 0-1.3-.3-1.7-.8-.4-.5-.6-1.2-.5-1.8l1.6-9.3m29.1 5.5h-4.5" stroke="#333" stroke-width="3" stroke-linecap="round" stroke-linejoin="round"/><path d="M99.3 49.8L97.5 59c-.2 1-1.1 1.8-2.2 1.8H71.6M42 21.3l.5-2.8c.2-1.1 1.1-1.8 2.2-1.8h8.8M39.9 33.8l.9-5.3m0-.3h9.7m-28.1 0h18.4m21.4-27h16.7M54 1.2h2.2M38.6 41.7h8.6m-11.8 0h3.2m-15.1 0h6.8" stroke="#333" stroke-width="3" stroke-linecap="round" stroke-linejoin="round"/><circle stroke="#333" stroke-width="3" fill="#7DB7FF" stroke-linecap="round" stroke-linejoin="round" cx="56.5" cy="81.7" r="8.2"/><circle stroke="#333" stroke-width="3" fill="#DDECFE" stroke-linecap="round" stroke-linejoin="round" cx="56.5" cy="81.7" r="3.9"/><circle stroke="#333" stroke-width="3" fill="#DDECFE" stroke-linecap="round" stroke-linejoin="round" cx="123.9" cy="81.7" r="3.9"/><path d="M29.4 55.4h14.4m103.4-4.1h-24.9l2.4-17.5h18.1m-20.5 24.5h5.5" stroke="#333" stroke-width="3" stroke-linecap="round" stroke-linejoin="round"/><circle fill="#FFF" cx="78.7" cy="21.9" r="20.7"/><circle fill="#5EA6FF" cx="78.5" cy="25.6" r="22.5"/><circle fill="#FFF" cx="78.7" cy="21.9" r="20.7"/><path d="M66 5.6c3.5-2.7 7.9-4.4 12.7-4.4 11.4 0 20.7 9.2 20.7 20.7 0 11.4-9.2 20.7-20.7 20.7S58 33.4 58 21.9c0-3.1.7-6 1.9-8.6M63 8.4l.2-.2m31.5 17.1c-1.2 5.9-5.6 10.7-11.4 12.4" stroke="#333" stroke-width="3" stroke-linecap="round" stroke-linejoin="round"/><path d="M78.7 8.7V5.6c9 0 16.4 7.3 16.4 16.4h-2.8m-29.5-3.9c1.5-6 6.3-10.7 12.3-12.1m-5 21.7l8.8-5v-8.6" stroke="#333" stroke-width="3" stroke-linecap="round" stroke-linejoin="round"/><path d="M65 21.9h-2.7c0 9 7.3 16.4 16.4 16.4v-2.9m51.8 6.1L135 46m-7-7.1l.7.7m7.4 3l3.4 3.4" stroke="#333" stroke-width="3" stroke-linecap="round" stroke-linejoin="round"/></g></svg>