<svg width="151" height="133" viewBox="0 0 151 133" xmlns="http://www.w3.org/2000/svg"><title>Sent_Email</title><g fill="none" fill-rule="evenodd"><path d="M64.2 38.9L54 29.4c-1.4-1.3-3.6-1.3-4.9 0L39 38.9M15.3 60.3L1.9 72.8v55.9c0 1.3 1.1 2.4 2.4 2.4h93c1.3 0 2.4-1.1 2.4-2.4V72.8L86.3 60.3" fill="#FFF" fill-rule="nonzero"/><path d="M52.5 33.7c-1-.9-2.5-.9-3.4 0 0 0-13.8 12.6-45.1 42.1l.4 54.1c0 1.2.2 2 1.5 2h90.9c1.2 0 .8-1.1.8-2.4l.5-53.5C49.4 29 52.5 33.7 52.5 33.7z" fill="#6BADFF" fill-rule="nonzero"/><path d="M99.2 73.1v55.8c0 1-.6 1.8-1.5 2.1-.2.1-.5.1-.8.1H4.6c-1.3 0-2.3-.1-2.3-1.4V74.6l2.5.3 44.6 27.7 46.9-28 2.9-1.5z" fill="#C2DDFF" fill-rule="nonzero"/><path d="M93.6 67.2L53.2 29.4c-1.4-1.3-3.6-1.3-4.9 0l-10.1 9.5M30.5 46L1.9 72.8v55.9c0 1.3 1.1 2.4 2.4 2.4h93c1.3 0 2.4-1.1 2.4-2.4V72.8m-56 26l-41.8-26m25.7 43.5l72-43.5m-80.3 48.5l2.5-1.5" stroke="#1676EE" stroke-width="3" stroke-linecap="round" stroke-linejoin="round"/><g stroke="#91C2FF" stroke-linecap="round" stroke-linejoin="round" stroke-width="2.359"><path d="M56.8 91.1l-2.1-1.8"/><path d="M51.2 85.1c-4.7-6.5-6.8-14.9-5.6-22.8 1.8-12.1 10.2-14.4 14.8-12.4 3.1 1.4 5 5.6 3.4 8.8-3 5.7-14.4 3.2-16.6-6.3-.8-3.5 0-7.4 2.1-10.3 3.5-4.8 9.9-6.4 15.8-7.4 10.5-1.8 23.7-2.6 31 6.9.9 1.2 1.7 2.6 1.7 4.1.1 3.1-3.4 7.6-11.2 5.3-11.4-3.5-14-16.6 1.4-19.5 2.8-.5 7.7-1 13-1.7" stroke-dasharray="5.4283,5.4283"/><path d="M103.5 29.5c.9-.1 1.8-.3 2.7-.4"/></g><path stroke="#1676EE" stroke-width="3" stroke-linecap="round" stroke-linejoin="round" d="M111.7 32.6l-2.8 1.5 1.2-8.3"/><path fill="#C2DDFF" fill-rule="nonzero" d="M104.5 17.1l13.8 20.5 30.8-17.4z"/><path stroke="#1676EE" stroke-width="3" stroke-linecap="round" stroke-linejoin="round" d="M110.3 25.7l8 11.9 30.8-17.4-44.6-3.1 2.4 3.5m25.8 2.1l15.6-2.1m-20.9 2.8l.4-.1m-17 2.3l8.4-1.1"/><path d="M100.5 9.5c1.5-1 3.8-1.7 6.4-1.7 1.8 0 3.6.3 4.9.9m-11.3-5c1.1-.9 2.7-1.5 4.5-1.5 1.3 0 2.5.3 3.5.8" stroke="#91C2FF" stroke-width="2.5" stroke-linecap="round" stroke-linejoin="round"/></g></svg>