<?xml version="1.0" encoding="UTF-8"?>
<svg width="151px" height="93px" viewBox="0 0 151 93" version="1.1" xmlns="http://www.w3.org/2000/svg" xmlns:xlink="http://www.w3.org/1999/xlink">
    <!-- Generator: Sketch 52.4 (67378) - http://www.bohemiancoding.com/sketch -->
    <title>feature-02</title>
    <desc>Created with Sketch.</desc>
    <g id="Page-1" stroke="none" stroke-width="1" fill="none" fill-rule="evenodd">
        <g id="feature-02" transform="translate(2.000000, 1.000000)">
            <path d="M43.1,80.3 L30.5,80.3 C30,80.3 29.6,79.9 29.6,79.4 L30.9,74.1 C30.9,73.6 31.3,73.2 31.8,73.2 L45.8,73.2 L134.4,73.2 L142.8,73.2 C143.3,73.2 143.7,73.6 143.7,74.1 L141.5,79.4 C141.5,79.9 141.1,80.3 140.6,80.3 L137.2,80.3 L43.1,80.3 Z" id="Shape" fill="#DDECFE"></path>
            <path d="M110.1,73.3 L117.7,29 C117.9,27.9 118.8,27.2 119.9,27.2 L137,27.2 C139.2,27.2 141.1,28.6 141.8,30.7 L147,46.9 C147.5,48.5 147.5,50.2 147.1,51.8 L141,73.3" id="Shape" fill="#DDECFE"></path>
            <g id="Group" stroke-linecap="round" stroke-linejoin="round" transform="translate(0.000000, 89.000000)" stroke="#91C2FF" stroke-width="3">
                <path d="M1.2,1.3 L0.3,1.3" id="Shape"></path>
                <path d="M27.9,1.3 L5,1.3" id="Shape"></path>
                <path d="M32.8,1.3 L31.9,1.3" id="Shape"></path>
                <path d="M108.6,1.3 L37.8,1.3" id="Shape"></path>
                <path d="M141.6,1.3 L112.6,1.3" id="Shape"></path>
                <path d="M146.7,1.3 L145.3,1.3" id="Shape"></path>
            </g>
            <circle id="Oval" stroke="#333333" stroke-width="3" fill="#7DB7FF" stroke-linecap="round" stroke-linejoin="round" cx="123.9" cy="81.7" r="8.2"></circle>
            <path d="M112.7,58.2 L117.7,29 C117.9,27.9 118.8,27.2 119.9,27.2 L137,27.2 C139.2,27.2 141.1,28.6 141.8,30.7 L147,46.9 C147.5,48.5 147.5,50.2 147.1,51.8 L141,73.3" id="Shape" stroke="#333333" stroke-width="3" stroke-linecap="round" stroke-linejoin="round"></path>
            <path d="M111.2,66.9 L111.8,63.7" id="Shape" stroke="#333333" stroke-width="3" stroke-linecap="round" stroke-linejoin="round"></path>
            <path d="M43.1,80.3 L30.5,80.3 C30,80.3 29.6,79.9 29.6,79.4 L30.9,74.1 C30.9,73.6 31.3,73.2 31.8,73.2 L45.8,73.2" id="Shape" stroke="#333333" stroke-width="3" stroke-linecap="round" stroke-linejoin="round"></path>
            <path d="M110.3,80.3 L70,80.3" id="Shape" stroke="#333333" stroke-width="3" stroke-linecap="round" stroke-linejoin="round"></path>
            <path d="M134.5,73.3 L142.9,73.3 C143.4,73.3 143.8,73.7 143.8,74.2 L141.6,79.5 C141.6,80 141.2,80.4 140.7,80.4 L137.3,80.4" id="Shape" stroke="#333333" stroke-width="3" stroke-linecap="round" stroke-linejoin="round"></path>
            <path d="M67.2,73.3 L113.1,73.3" id="Shape" stroke="#333333" stroke-width="3" stroke-linecap="round" stroke-linejoin="round"></path>
            <path d="M42,21.3 L42.5,18.5 C42.7,17.4 43.6,16.7 44.7,16.7 L53.5,16.7 L103.2,16.7 L109.5,16.7 C110.2,16.7 110.8,17 111.2,17.5 C111.6,18 111.8,18.7 111.7,19.3 L102.8,65.6 C102.6,66.6 101.7,67.4 100.6,67.4 L36.8,67.4 C36.1,67.4 35.5,67.1 35.1,66.6 C34.7,66.1 34.5,65.4 34.6,64.8 L36.2,55.5 L42,21.3 Z" id="Shape" fill="#FFFFFF"></path>
            <path d="M46,24 L46.4,21.3 C46.6,20.3 47.4,19.6 48.5,19.6 L56.8,19.6 L103.7,19.6 L109.7,19.6 C110.3,19.6 110.9,19.9 111.3,20.4 C111.7,20.9 111.9,21.5 111.7,22.1 L103.3,65.7 C103.1,66.7 102.3,67.4 101.3,67.4 L41.2,67.4 C40.6,67.4 40,67.1 39.6,66.7 C39.2,66.3 39,65.6 39.1,65 L40.6,56.2 L46,24 Z" id="Shape" fill="#7DB7FF"></path>
            <path d="M37.7,46.9 L38.5,41.9" id="Shape" stroke="#333333" stroke-width="3" stroke-linecap="round" stroke-linejoin="round"></path>
            <path d="M103.2,16.6 L109.5,16.6 C110.2,16.6 110.8,16.9 111.2,17.4 C111.6,17.9 111.8,18.6 111.7,19.2 L102.8,65.5 C102.6,66.5 101.7,67.3 100.6,67.3 L36.8,67.3 C36.1,67.3 35.5,67 35.1,66.5 C34.7,66 34.5,65.3 34.6,64.7 L36.2,55.4" id="Shape" stroke="#333333" stroke-width="3" stroke-linecap="round" stroke-linejoin="round"></path>
            <path d="M65.3,60.9 L60.8,60.9" id="Shape" stroke="#333333" stroke-width="3" stroke-linecap="round" stroke-linejoin="round"></path>
            <path d="M99.3,49.8 L97.5,59 C97.3,60 96.4,60.8 95.3,60.8 L71.6,60.8" id="Shape" stroke="#333333" stroke-width="3" stroke-linecap="round" stroke-linejoin="round"></path>
            <path d="M42,21.3 L42.5,18.5 C42.7,17.4 43.6,16.7 44.7,16.7 L53.5,16.7" id="Shape" stroke="#333333" stroke-width="3" stroke-linecap="round" stroke-linejoin="round"></path>
            <path d="M39.9,33.8 L40.8,28.5" id="Shape" stroke="#333333" stroke-width="3" stroke-linecap="round" stroke-linejoin="round"></path>
            <path d="M40.8,28.2 L50.5,28.2" id="Shape" stroke="#333333" stroke-width="3" stroke-linecap="round" stroke-linejoin="round"></path>
            <path d="M22.4,28.2 L40.8,28.2" id="Shape" stroke="#333333" stroke-width="3" stroke-linecap="round" stroke-linejoin="round"></path>
            <path d="M62.2,1.2 L78.9,1.2" id="Shape" stroke="#333333" stroke-width="3" stroke-linecap="round" stroke-linejoin="round"></path>
            <path d="M54,1.2 L56.2,1.2" id="Shape" stroke="#333333" stroke-width="3" stroke-linecap="round" stroke-linejoin="round"></path>
            <path d="M38.6,41.7 L47.2,41.7" id="Shape" stroke="#333333" stroke-width="3" stroke-linecap="round" stroke-linejoin="round"></path>
            <path d="M35.4,41.7 L38.6,41.7" id="Shape" stroke="#333333" stroke-width="3" stroke-linecap="round" stroke-linejoin="round"></path>
            <path d="M23.5,41.7 L30.3,41.7" id="Shape" stroke="#333333" stroke-width="3" stroke-linecap="round" stroke-linejoin="round"></path>
            <circle id="Oval" stroke="#333333" stroke-width="3" fill="#7DB7FF" stroke-linecap="round" stroke-linejoin="round" cx="56.5" cy="81.7" r="8.2"></circle>
            <circle id="Oval" stroke="#333333" stroke-width="3" fill="#DDECFE" stroke-linecap="round" stroke-linejoin="round" cx="56.5" cy="81.7" r="3.9"></circle>
            <circle id="Oval" stroke="#333333" stroke-width="3" fill="#DDECFE" stroke-linecap="round" stroke-linejoin="round" cx="123.9" cy="81.7" r="3.9"></circle>
            <path d="M29.4,55.4 L43.8,55.4" id="Shape" stroke="#333333" stroke-width="3" stroke-linecap="round" stroke-linejoin="round"></path>
            <polyline id="Shape" stroke="#333333" stroke-width="3" stroke-linecap="round" stroke-linejoin="round" points="147.2 51.3 122.3 51.3 124.7 33.8 142.8 33.8"></polyline>
            <path d="M122.3,58.3 L127.8,58.3" id="Shape" stroke="#333333" stroke-width="3" stroke-linecap="round" stroke-linejoin="round"></path>
            <circle id="Oval" fill="#FFFFFF" cx="78.7" cy="21.9" r="20.7"></circle>
            <circle id="Oval" fill="#5EA6FF" cx="78.5" cy="25.6" r="22.5"></circle>
            <circle id="Oval" fill="#FFFFFF" cx="78.7" cy="21.9" r="20.7"></circle>
            <path d="M66,5.6 C69.5,2.9 73.9,1.2 78.7,1.2 C90.1,1.2 99.4,10.4 99.4,21.9 C99.4,33.3 90.2,42.6 78.7,42.6 C67.2,42.6 58,33.4 58,21.9 C58,18.8 58.7,15.9 59.9,13.3" id="Shape" stroke="#333333" stroke-width="3" stroke-linecap="round" stroke-linejoin="round"></path>
            <path d="M63,8.4 C63.1,8.3 63.1,8.3 63.2,8.2" id="Shape" stroke="#333333" stroke-width="3" stroke-linecap="round" stroke-linejoin="round"></path>
            <path d="M94.7,25.3 C93.5,31.2 89.1,36 83.3,37.7" id="Shape" stroke="#333333" stroke-width="3" stroke-linecap="round" stroke-linejoin="round"></path>
            <path d="M78.7,8.7 L78.7,5.6 C87.7,5.6 95.1,12.9 95.1,22 L92.3,22" id="Shape" stroke="#333333" stroke-width="3" stroke-linecap="round" stroke-linejoin="round"></path>
            <path d="M62.8,18.1 C64.3,12.1 69.1,7.4 75.1,6" id="Shape" stroke="#333333" stroke-width="3" stroke-linecap="round" stroke-linejoin="round"></path>
            <polyline id="Shape" stroke="#333333" stroke-width="3" stroke-linecap="round" stroke-linejoin="round" points="70.1 27.7 78.9 22.7 78.9 14.1"></polyline>
            <path d="M65,21.9 L62.3,21.9 C62.3,30.9 69.6,38.3 78.7,38.3 L78.7,35.4" id="Shape" stroke="#333333" stroke-width="3" stroke-linecap="round" stroke-linejoin="round"></path>
            <path d="M130.5,41.5 L135,46" id="Shape" stroke="#333333" stroke-width="3" stroke-linecap="round" stroke-linejoin="round"></path>
            <path d="M128,38.9 L128.7,39.6" id="Shape" stroke="#333333" stroke-width="3" stroke-linecap="round" stroke-linejoin="round"></path>
            <path d="M136.1,42.6 L139.5,46" id="Shape" stroke="#333333" stroke-width="3" stroke-linecap="round" stroke-linejoin="round"></path>
        </g>
    </g>
</svg>